<?xml version="1.0" encoding="UTF-8"?>
<!DOCTYPE svg PUBLIC "-//W3C//DTD SVG 1.1//EN" "http://www.w3.org/Graphics/SVG/1.1/DTD/svg11.dtd">
<svg xmlns="http://www.w3.org/2000/svg" version="1.1" width="32px" height="32px" style="shape-rendering:geometricPrecision; text-rendering:geometricPrecision; image-rendering:optimizeQuality; fill-rule:evenodd; clip-rule:evenodd" xmlns:xlink="http://www.w3.org/1999/xlink">
<g><path style="opacity:0.012" fill="#000000" d="M 6.5,-0.5 C 6.83333,-0.5 7.16667,-0.5 7.5,-0.5C 7.5,-0.166667 7.5,0.166667 7.5,0.5C 7.16667,0.166667 6.83333,-0.166667 6.5,-0.5 Z"/></g>
<g><path style="opacity:0.926" fill="#000000" d="M 9.5,-0.5 C 13.5,-0.5 17.5,-0.5 21.5,-0.5C 21.8417,0.338246 22.5084,0.67158 23.5,0.5C 24.9448,2.06269 26.6115,3.39602 28.5,4.5C 28.427,6.02694 29.0937,7.02694 30.5,7.5C 30.3284,8.49162 30.6618,9.15829 31.5,9.5C 31.5,13.5 31.5,17.5 31.5,21.5C 30.6618,21.8417 30.3284,22.5084 30.5,23.5C 29.0937,23.9731 28.427,24.9731 28.5,26.5C 27.8333,26.5 27.5,26.8333 27.5,27.5C 26.8333,27.5 26.5,27.8333 26.5,28.5C 24.9731,28.427 23.9731,29.0937 23.5,30.5C 22.5084,30.3284 21.8417,30.6618 21.5,31.5C 17.5,31.5 13.5,31.5 9.5,31.5C 9.15829,30.6618 8.49162,30.3284 7.5,30.5C 7.02694,29.0937 6.02694,28.427 4.5,28.5C 3.39602,26.6115 2.06269,24.9448 0.5,23.5C 0.67158,22.5084 0.338246,21.8417 -0.5,21.5C -0.5,17.5 -0.5,13.5 -0.5,9.5C 0.338246,9.15829 0.67158,8.49162 0.5,7.5C 2.5,4.83333 4.83333,2.5 7.5,0.5C 8.49162,0.67158 9.15829,0.338246 9.5,-0.5 Z"/></g>
<g><path style="opacity:0.012" fill="#000000" d="M 23.5,-0.5 C 23.8333,-0.5 24.1667,-0.5 24.5,-0.5C 24.3147,0.170143 23.9813,0.170143 23.5,-0.5 Z"/></g>
<g><path style="opacity:0.008" fill="#000000" d="M 4.5,0.5 C 5.83333,1.16667 5.83333,1.16667 4.5,0.5 Z"/></g>
<g><path style="opacity:0.008" fill="#000000" d="M 25.5,0.5 C 26.8333,1.16667 26.8333,1.16667 25.5,0.5 Z"/></g>
<g><path style="opacity:0.012" fill="#000000" d="M 29.5,4.5 C 28.8333,3.16667 28.8333,3.16667 29.5,4.5 Z"/></g>
<g><path style="opacity:0.008" fill="#000000" d="M 0.5,4.5 C 1.83333,5.16667 1.83333,5.16667 0.5,4.5 Z"/></g>
<g><path style="opacity:0.008" fill="#000000" d="M 29.5,4.5 C 30.8333,5.16667 30.8333,5.16667 29.5,4.5 Z"/></g>
<g><path style="opacity:0.012" fill="#000000" d="M -0.5,6.5 C 0.166667,6.5 0.5,6.83333 0.5,7.5C 0.166667,7.16667 -0.166667,6.83333 -0.5,6.5 Z"/></g>
<g><path style="opacity:0.012" fill="#000000" d="M 31.5,6.5 C 31.5,6.83333 31.5,7.16667 31.5,7.5C 30.8299,7.01865 30.8299,6.68532 31.5,6.5 Z"/></g>
<g><path style="opacity:1" fill="#5a6024" d="M 12.5,11.5 C 11.2502,11.5774 10.4169,12.244 10,13.5C 9.02552,11.1224 8.35886,11.4557 8,14.5C 7.72158,13.5842 7.22158,12.9175 6.5,12.5C 7.13419,11.0532 8.30085,10.3866 10,10.5C 11.0698,10.528 11.9032,10.8614 12.5,11.5 Z"/></g>
<g><path style="opacity:1" fill="#7da93b" d="M 12.5,11.5 C 13.404,12.209 13.7373,13.209 13.5,14.5C 11.283,15.3686 8.94965,15.702 6.5,15.5C 6.5,14.5 6.5,13.5 6.5,12.5C 7.22158,12.9175 7.72158,13.5842 8,14.5C 8.35886,11.4557 9.02552,11.1224 10,13.5C 10.4169,12.244 11.2502,11.5774 12.5,11.5 Z"/></g>
<g><path style="opacity:1" fill="#287721" d="M 6.5,12.5 C 6.5,13.5 6.5,14.5 6.5,15.5C 8.94965,15.702 11.283,15.3686 13.5,14.5C 17.3123,15.3238 21.3123,15.8238 25.5,16C 26.7911,17.2917 26.7911,18.4583 25.5,19.5C 24.2702,18.3943 23.1036,17.3943 22,16.5C 21.3333,19.1667 20.6667,19.1667 20,16.5C 19.6667,17.1667 19.3333,17.8333 19,18.5C 18.15,17.5761 17.15,17.5761 16,18.5C 15.0546,18.0946 14.3879,17.428 14,16.5C 13.51,17.7932 13.3433,19.1266 13.5,20.5C 10.5525,20.7771 7.71914,20.4438 5,19.5C 5.22725,17.4259 5.06058,15.4259 4.5,13.5C 4.95689,12.7025 5.62356,12.3691 6.5,12.5 Z"/></g>
<g><path style="opacity:1" fill="#0e9224" d="M 25.5,19.5 C 21.7016,20.4834 17.7016,20.8168 13.5,20.5C 13.3433,19.1266 13.51,17.7932 14,16.5C 14.3879,17.428 15.0546,18.0946 16,18.5C 17.15,17.5761 18.15,17.5761 19,18.5C 19.3333,17.8333 19.6667,17.1667 20,16.5C 20.6667,19.1667 21.3333,19.1667 22,16.5C 23.1036,17.3943 24.2702,18.3943 25.5,19.5 Z"/></g>
<g><path style="opacity:0.012" fill="#000000" d="M -0.5,23.5 C -0.166667,23.5 0.166667,23.5 0.5,23.5C 0.31468,24.1701 -0.0186536,24.1701 -0.5,23.5 Z"/></g>
<g><path style="opacity:0.012" fill="#000000" d="M 30.5,23.5 C 30.8333,23.5 31.1667,23.5 31.5,23.5C 31.5,23.8333 31.5,24.1667 31.5,24.5C 31.1667,24.1667 30.8333,23.8333 30.5,23.5 Z"/></g>
<g><path style="opacity:0.008" fill="#000000" d="M 0.5,25.5 C 1.83333,26.1667 1.83333,26.1667 0.5,25.5 Z"/></g>
<g><path style="opacity:0.008" fill="#000000" d="M 29.5,25.5 C 30.8333,26.1667 30.8333,26.1667 29.5,25.5 Z"/></g>
<g><path style="opacity:0.012" fill="#000000" d="M 28.5,26.5 C 28.8333,26.5 29.1667,26.5 29.5,26.5C 29.3147,27.1701 28.9813,27.1701 28.5,26.5 Z"/></g>
<g><path style="opacity:0.012" fill="#000000" d="M 27.5,27.5 C 27.8333,27.5 28.1667,27.5 28.5,27.5C 28.3147,28.1701 27.9813,28.1701 27.5,27.5 Z"/></g>
<g><path style="opacity:0.012" fill="#000000" d="M 4.5,28.5 C 4.5,28.8333 4.5,29.1667 4.5,29.5C 3.82986,29.0187 3.82986,28.6853 4.5,28.5 Z"/></g>
<g><path style="opacity:0.012" fill="#000000" d="M 26.5,28.5 C 26.8333,28.5 27.1667,28.5 27.5,28.5C 27.3147,29.1701 26.9813,29.1701 26.5,28.5 Z"/></g>
<g><path style="opacity:0.008" fill="#000000" d="M 4.5,29.5 C 5.83333,30.1667 5.83333,30.1667 4.5,29.5 Z"/></g>
<g><path style="opacity:0.008" fill="#000000" d="M 26.5,29.5 C 25.8333,30.1667 25.8333,30.1667 26.5,29.5 Z"/></g>
<g><path style="opacity:0.012" fill="#000000" d="M 7.5,30.5 C 7.5,30.8333 7.5,31.1667 7.5,31.5C 6.82986,31.0187 6.82986,30.6853 7.5,30.5 Z"/></g>
<g><path style="opacity:0.012" fill="#000000" d="M 23.5,30.5 C 24.1667,30.5 24.5,30.8333 24.5,31.5C 24.1667,31.1667 23.8333,30.8333 23.5,30.5 Z"/></g>
</svg>
